<svg width="752" height="589" viewBox="0 0 752 589" fill="none" xmlns="http://www.w3.org/2000/svg">
<path fill-rule="evenodd" clip-rule="evenodd" d="M8 575.25L514 104.852L752 49L424.493 347.023L677 571.498L478.17 582.158L321.281 440.944L159.11 588.516L8 575.25ZM69.0822 560.009L516.497 143.903L600.897 128.424L365.857 346.657L581.997 559.902L481.99 544.902L319.211 389.967L147.496 549.403L69.0822 560.009Z" fill="#Ffff"/>
<path fill-rule="evenodd" clip-rule="evenodd" d="M3.95435 5.59583L0 0.5V4.5V559.5L73.5 488.5L49.2532 75.8179L89.7598 84.5291L101.413 432.4L98.9023 459L148.402 415.5L397 175H424.5L469.5 37L266.839 227.658L343 206.297L193 341.297L141.186 389.871L146.5 42.5L119.904 37.7263L3.95435 5.59583Z" fill="#ffffff"/>
</svg>
