<svg width="35" height="20" viewBox="0 0 35 20" fill="none" xmlns="http://www.w3.org/2000/svg">
<path d="M8.40264 19.4637C7.15071 19.4637 6.01471 19.255 4.99462 18.8377C3.97453 18.4049 3.09354 17.7867 2.35166 16.983C1.62523 16.1638 1.06109 15.1669 0.659241 13.9923C0.257388 12.8176 0.0564618 11.4807 0.0564618 9.98149C0.0564618 8.52864 0.24966 7.22262 0.636057 6.06342C1.02245 4.88878 1.57114 3.8996 2.28211 3.09589C2.99308 2.27673 3.83543 1.65077 4.80915 1.218C5.78287 0.785239 6.86478 0.568857 8.05488 0.568857C9.2759 0.568857 10.381 0.785239 11.3702 1.218C12.3593 1.65077 13.2017 2.27673 13.8972 3.09589C14.5927 3.8996 15.126 4.88878 15.4969 6.06342C15.8678 7.22262 16.0533 8.53637 16.0533 10.0047V10.422H1.91117C2.0039 11.643 2.22801 12.7017 2.5835 13.5982C2.93898 14.4946 3.40266 15.2442 3.97453 15.847C4.5464 16.4343 5.20327 16.8748 5.94515 17.1685C6.70249 17.4621 7.52165 17.609 8.40264 17.609C9.02088 17.609 9.63911 17.5394 10.2573 17.4003C10.8756 17.2458 11.432 17.0216 11.9266 16.728C12.4366 16.4343 12.8617 16.0711 13.2017 15.6383C13.5417 15.2056 13.7426 14.711 13.8045 14.1546H15.636C15.466 15.0047 15.1646 15.762 14.7318 16.4266C14.2991 17.0757 13.7658 17.6322 13.1321 18.0958C12.4984 18.5441 11.7798 18.8841 10.976 19.1159C10.1723 19.3478 9.31454 19.4637 8.40264 19.4637ZM14.1754 8.56728C13.8663 6.51164 13.1631 4.97378 12.0657 3.9537C10.9838 2.93361 9.64684 2.42356 8.05488 2.42356C7.26663 2.42356 6.53248 2.54721 5.85242 2.7945C5.17236 3.0418 4.56185 3.42047 4.0209 3.93051C3.4954 4.44056 3.04718 5.08198 2.67623 5.85477C2.32075 6.62756 2.06573 7.53173 1.91117 8.56728H14.1754ZM32.3747 19L27.1584 11.6275L21.942 19H19.6932L26.0223 10.0047L19.6932 1.03253H21.9652L27.1584 8.40499L32.3515 1.03253H34.6235L28.2944 10.0047L34.6235 19H32.3747Z" fill="#3D3D3D"/>
</svg>
